<svg width="60" height="60" viewBox="0 0 60 60" xmlns="http://www.w3.org/2000/svg">
  <circle cx="30" cy="30" r="28" fill="#1a1a1a" stroke="#ffffff" stroke-width="2"/>
  <path d="M30.5 24v4.8h7.7c-.3 1.6-1.2 3-2.4 3.9l3.9 3c2.3-2.1 3.6-5.2 3.6-8.9 0-.9-.1-1.7-.2-2.5h-12.6z" fill="#ffffff"/>
  <path d="M22.1 28.1l-.9 3.4-3.4.1c-1.1-2.1-1.8-4.5-1.8-7.1 0-2.5.6-4.9 1.7-7h3.5l.7 3.2c-.4 1.1-.6 2.3-.6 3.5 0 1.3.3 2.6.8 3.9z" fill="#ffffff"/>
  <path d="M30.5 18.2c2.2 0 4.2.8 5.8 2.3l4.3-4.3C37.4 13.3 34.2 12 30.5 12c-6.9 0-12.9 4.2-15.5 10.2l3.5 2.7c1.7-5.1 6.4-8.7 12-8.7z" fill="#ffffff"/>
  <path d="M18.5 35.7l3.5 2.7c1.7 5.1 6.4 8.7 12 8.7 3.7 0 6.9-1.2 9.2-3.3l-4.5-3.5c-1.2.8-2.7 1.3-4.7 1.3-3.6 0-6.6-2.4-7.7-5.7l-.8-.2z" fill="#ffffff"/>
</svg>