<svg width="60" height="60" viewBox="0 0 60 60" xmlns="http://www.w3.org/2000/svg">
  <circle cx="30" cy="30" r="28" fill="#1a1a1a" stroke="#ffffff" stroke-width="2"/>
  <path d="M42 21c-1 .4-2 .7-3.1.8 1.1-.7 2-1.7 2.4-3-.1 0-2.3 1.4-3.6 1.7-1-1.1-2.5-1.8-4.1-1.8-3.1 0-5.6 2.5-5.6 5.6 0 .4 0 .9.1 1.3-4.7-.2-8.8-2.5-11.6-5.9-.5.8-.8 1.8-.8 2.8 0 1.9 1 3.6 2.5 4.6-.9 0-1.8-.3-2.5-.7v.1c0 2.7 1.9 4.9 4.4 5.4-.5.1-.9.2-1.4.2-.3 0-.7 0-1-.1.7 2.1 2.6 3.6 4.9 3.7-1.8 1.4-4.1 2.2-6.5 2.2-.4 0-.8 0-1.2-.1 2.3 1.5 5 2.3 7.9 2.3 9.5 0 14.7-7.9 14.7-14.7v-.7c1-.7 1.9-1.6 2.6-2.6z" fill="#ffffff"/>
</svg>